<?xml version="1.0" encoding="UTF-8" standalone="no"?><!DOCTYPE svg PUBLIC "-//W3C//DTD SVG 1.1//EN" "http://www.w3.org/Graphics/SVG/1.1/DTD/svg11.dtd"><svg width="100%" height="100%" viewBox="0 0 1029 663" version="1.1" xmlns="http://www.w3.org/2000/svg" xmlns:xlink="http://www.w3.org/1999/xlink" xml:space="preserve" xmlns:serif="http://www.serif.com/" style="fill-rule:evenodd;clip-rule:evenodd;stroke-linejoin:round;stroke-miterlimit:2;"><g><path d="M633.424,460.897c-0.24,0.821 -0.24,1.695 0,2.516c-0.02,4.033 3.065,7.46 7.077,7.864l15.177,1.258c3.982,0.44 7.023,3.857 6.999,7.863l-0.551,7.864l-5.347,67.941c-0.105,1.487 0.252,2.97 1.022,4.246c7.864,13.29 53.158,84.926 110.09,6.684c62.908,-85.87 153.339,-265.316 153.339,-265.316l35.936,-67.784l70.772,-133.68c0.668,-1.337 0.941,-2.838 0.787,-4.325c-1.023,-7.863 -5.898,-34.993 -26.658,-45.137c-24.22,-11.795 -147.363,-26.5 -173.706,-47.967c-0.77,-0.647 -1.649,-1.152 -2.595,-1.494c-7.863,-2.359 -46.473,-9.673 -44.271,59.448l-0,3.067c3.46,72.659 -73.053,118.739 -88.858,127.468c-1.806,1.023 -3.136,2.72 -3.696,4.718l-5.033,20.288c-1.006,3.458 -4.265,5.805 -7.863,5.662l-16.357,-1.258c-0.905,-0.351 -1.868,-0.531 -2.839,-0.531c-4.314,0 -7.864,3.55 -7.864,7.864c0,4.313 3.55,7.863 7.864,7.863c0.558,0 1.114,-0.059 1.66,-0.177l91.296,7.156c3.982,0.44 7.022,3.857 6.998,7.863l-1.573,20.052c-0.477,3.952 -3.883,6.949 -7.863,6.92l-56.46,-4.403c-3.758,-0.084 -7.076,2.537 -7.864,6.212l-6.763,39.789c-0.041,0.33 -0.063,0.662 -0.063,0.994c0,3.982 3.026,7.368 6.983,7.814l50.013,3.931c3.981,0.441 7.022,3.858 6.998,7.864l-1.966,25.085c-0.477,3.951 -3.883,6.948 -7.863,6.92l-50.72,-4.011c-3.98,-0.029 -7.386,2.969 -7.864,6.92l-3.381,42.621l-0.393,5.032l64.009,4.954c4.012,0.403 7.097,3.831 7.077,7.864c0,11.952 -0.55,23.59 -0.865,35.779c-66.473,-15.465 -101.413,-18.899 -104.821,-10.301Z" style="fill:#000;"/><text x="159.657px" y="455.974px" style="font-family:'Nunito-Bold', 'Nunito';font-weight:700;font-size:328.067px;fill:#000000;">S<tspan x="333.382px 492.675px " y="455.974px 455.974px ">ho</tspan></text><g><text x="-14.772px" y="619.172px" style="font-family:'Nunito-Bold', 'Nunito';font-weight:700;font-size:234.18px;fill:#000;">F</text><text x="92.336px" y="619.172px" style="font-family:'Nunito-Bold', 'Nunito';font-weight:700;font-size:234.18px;fill:#000;">a</text><text x="197.255px" y="619.172px" style="font-family:'Nunito-Bold', 'Nunito';font-weight:700;font-size:234.18px;fill:#000;">c</text><text x="292.716px" y="619.172px" style="font-family:'Nunito-Bold', 'Nunito';font-weight:700;font-size:234.18px;fill:#000;">t<tspan x="364.438px " y="619.172px ">o</tspan></text><text x="476.137px" y="619.172px" style="font-family:'Nunito-Bold', 'Nunito';font-weight:700;font-size:234.18px;fill:#000;">r</text><text x="556.409px" y="619.172px" style="font-family:'Nunito-Bold', 'Nunito';font-weight:700;font-size:234.18px;fill:#000;">y</text></g></g></svg>